# xmcd
#
# Track frame offsets:
#	150
#	22330
#	41230
#	54323
#	68939
#	87009
#	104394
#	129979
#	148816
#	167791
#
# Disc length: 2485 seconds
#
# Revision: 1
# Processed by: cddbd v1.5.2PL0 Copyright (c) Steve Scherf et al.
# Submitted via: audiograbber 1.83.01
#
DISCID=8e09b30a
DTITLE=John Norum - Play yard blues
DYEAR=2010
DGENRE=Blues
TTITLE0=Let it shine
TTITLE1=Red light green high
TTITLE2=It's only money
TTITLE3=Got my eyes on you
TTITLE4=When darkness falls
TTITLE5=Over and done
TTITLE6=Ditch queen
TTITLE7=Travel in the dark
TTITLE8=Born again
TTITLE9=Play yard blues
EXTD=
EXTT0=
EXTT1=
EXTT2=
EXTT3=
EXTT4=
EXTT5=
EXTT6=
EXTT7=
EXTT8=
EXTT9=
PLAYORDER=
